<svg xmlns="http://www.w3.org/2000/svg" xmlns:xlink="http://www.w3.org/1999/xlink" width="64" height="64" viewBox="0 0 64 64">
  <defs>
    <linearGradient id="linear-gradient" x1="0.101" y1="0.065" x2="1" y2="0.959" gradientUnits="objectBoundingBox">
      <stop offset="0" stop-color="#a900ff"/>
      <stop offset="1" stop-color="#3900f9"/>
    </linearGradient>
  </defs>
  <g id="Groupe_2873" data-name="Groupe 2873" transform="translate(0 -0.354)">
    <rect id="_12371142_1009752349085609_892681716708831244_o" data-name="12371142_1009752349085609_892681716708831244_o" width="64" height="64" rx="5" transform="translate(0 0.354)" fill="url(#linear-gradient)"/>
    <g id="video-player" transform="translate(16.329 16.481)">
      <g id="Groupe_74" data-name="Groupe 74" transform="translate(0)">
        <path id="Tracé_51" data-name="Tracé 51" d="M27.4,4.7A16.051,16.051,0,0,0,4.7,27.4,16.051,16.051,0,1,0,27.4,4.7ZM25.135,16.833,13.046,24.892a.94.94,0,0,1-1.462-.782V7.992a.94.94,0,0,1,1.462-.782l12.088,8.059a.94.94,0,0,1,0,1.565Z" transform="translate(0)" fill="#fff"/>
      </g>
    </g>
  </g>
</svg>
