<svg id="notification" xmlns="http://www.w3.org/2000/svg" width="16.659" height="19.992" viewBox="0 0 16.659 19.992">
  <g id="Groupe_173" data-name="Groupe 173">
    <g id="Groupe_172" data-name="Groupe 172">
      <path id="Tracé_138" data-name="Tracé 138" d="M59.275,16.862l-1.43-2.384a7.082,7.082,0,0,1-1.01-3.644V8.746a5.838,5.838,0,0,0-4.165-5.585v-1.5a1.666,1.666,0,0,0-3.332,0v1.5a5.838,5.838,0,0,0-4.165,5.585v2.088a7.086,7.086,0,0,1-1.009,3.643l-1.43,2.384a.417.417,0,0,0,.357.631H58.918a.416.416,0,0,0,.357-.631Z" transform="translate(-42.675)" fill="#fff"/>
    </g>
  </g>
  <g id="Groupe_175" data-name="Groupe 175" transform="translate(5.706 18.326)">
    <g id="Groupe_174" data-name="Groupe 174">
      <path id="Tracé_139" data-name="Tracé 139" d="M188.815,469.333a2.9,2.9,0,0,0,5.246,0Z" transform="translate(-188.815 -469.333)" fill="#fff"/>
    </g>
  </g>
</svg>
