<svg xmlns="http://www.w3.org/2000/svg" xmlns:xlink="http://www.w3.org/1999/xlink" width="64" height="64" viewBox="0 0 64 64">
  <defs>
    <linearGradient id="linear-gradient" x1="0.101" y1="0.065" x2="1" y2="0.959" gradientUnits="objectBoundingBox">
      <stop offset="0" stop-color="#ff40cc"/>
      <stop offset="1" stop-color="red"/>
    </linearGradient>
  </defs>
  <g id="Groupe_145" data-name="Groupe 145" transform="translate(-81 -149)">
    <rect id="_12371142_1009752349085609_892681716708831244_o" data-name="12371142_1009752349085609_892681716708831244_o" width="64" height="64" rx="5" transform="translate(81 149)" fill="url(#linear-gradient)"/>
    <g id="video-player" transform="translate(97.234 165.362)">
      <g id="Groupe_74" data-name="Groupe 74" transform="translate(0 0)">
        <path id="Tracé_51" data-name="Tracé 51" d="M26.723,4.585A15.654,15.654,0,0,0,4.585,26.723,15.654,15.654,0,1,0,26.723,4.585Z" transform="translate(0)" fill="#fff"/>
        <path id="musical-note_1_" data-name="musical-note (1)" d="M77.7,13.774a9,9,0,0,0,1.206-3.961,5.53,5.53,0,0,0-.583-2.748,7.766,7.766,0,0,0-3-2.953A8.475,8.475,0,0,1,73.11,2.242l-.1-.137A3.689,3.689,0,0,1,72.235.718.842.842,0,0,0,71.352,0a.831.831,0,0,0-.775.83V15.677a4.82,4.82,0,0,0-2.5-.683c-2.3,0-4.166,1.495-4.166,3.332s1.869,3.332,4.166,3.332,4.166-1.495,4.166-3.332V8.616a6,6,0,0,1,3.862,4.54,4.7,4.7,0,0,1-.322.455.832.832,0,0,0,1.25,1.1,6.193,6.193,0,0,0,.611-.86A.525.525,0,0,0,77.7,13.774Z" transform="translate(-54.715 5.089)" fill="#ff2474"/>
      </g>
    </g>
  </g>
</svg>
