<svg xmlns="http://www.w3.org/2000/svg" width="36.831" height="22.099" viewBox="0 0 36.831 22.099">
  <g id="mastercard" transform="translate(0 -100.8)">
    <path id="Tracé_3044" data-name="Tracé 3044" d="M223.7,111.849a11.049,11.049,0,0,1-22.1,0h0a11.049,11.049,0,1,1,22.1,0Z" transform="translate(-186.868 0)" fill="#ffb600"/>
    <path id="Tracé_3045" data-name="Tracé 3045" d="M212.649,100.8A11.078,11.078,0,0,1,223.7,111.849h0a11.049,11.049,0,0,1-22.1,0" transform="translate(-186.868)" fill="#f7981d"/>
    <path id="Tracé_3046" data-name="Tracé 3046" d="M352.8,100.8a11.078,11.078,0,0,1,11.049,11.049h0A11.04,11.04,0,0,1,352.8,122.9" transform="translate(-327.018)" fill="#ff8500"/>
    <path id="Tracé_3047" data-name="Tracé 3047" d="M10.932,100.8a11.05,11.05,0,0,0,.117,22.1,11.178,11.178,0,0,0,7.425-2.865h0a10.506,10.506,0,0,0,1.111-1.169H17.3a13.484,13.484,0,0,1-.818-1.111H20.4a7.489,7.489,0,0,0,.643-1.169h-5.2a6.968,6.968,0,0,1-.468-1.169h6.08a11.609,11.609,0,0,0,.585-3.508,15.09,15.09,0,0,0-.234-2.338H15.025a8.547,8.547,0,0,1,.292-1.169H21.4a6.967,6.967,0,0,0-.468-1.169H15.785a11.594,11.594,0,0,1,.643-1.169h3.917a5.56,5.56,0,0,0-.877-1.169H17.3a9.962,9.962,0,0,1,1.111-1.111,10.788,10.788,0,0,0-7.425-2.865C10.991,100.8,10.991,100.8,10.932,100.8Z" fill="#ff5050"/>
    <path id="Tracé_3048" data-name="Tracé 3048" d="M0,113.332a11.04,11.04,0,0,0,11.049,11.049,11.178,11.178,0,0,0,7.425-2.865h0a10.5,10.5,0,0,0,1.111-1.169H17.3a13.487,13.487,0,0,1-.818-1.111H20.4a7.489,7.489,0,0,0,.643-1.169h-5.2a6.968,6.968,0,0,1-.468-1.169h6.08a11.609,11.609,0,0,0,.585-3.508,15.09,15.09,0,0,0-.234-2.338H15.025a8.547,8.547,0,0,1,.292-1.169H21.4a6.968,6.968,0,0,0-.468-1.169H15.785a11.592,11.592,0,0,1,.643-1.169h3.917a5.559,5.559,0,0,0-.877-1.169H17.3a9.964,9.964,0,0,1,1.111-1.111,10.788,10.788,0,0,0-7.425-2.865h-.058" transform="translate(0 -1.483)" fill="#e52836"/>
    <path id="Tracé_3049" data-name="Tracé 3049" d="M149.717,124.382a11.178,11.178,0,0,0,7.425-2.865h0a10.5,10.5,0,0,0,1.111-1.169h-2.28a13.481,13.481,0,0,1-.818-1.111h3.917a7.489,7.489,0,0,0,.643-1.169h-5.2a6.968,6.968,0,0,1-.468-1.169h6.08a11.609,11.609,0,0,0,.585-3.508,15.084,15.084,0,0,0-.234-2.338h-6.782a8.544,8.544,0,0,1,.292-1.169h6.08a6.968,6.968,0,0,0-.468-1.169h-5.145a11.593,11.593,0,0,1,.643-1.169h3.917a5.559,5.559,0,0,0-.877-1.169h-2.163a9.964,9.964,0,0,1,1.111-1.111,10.788,10.788,0,0,0-7.425-2.865H149.6" transform="translate(-138.668 -1.483)" fill="#cb2026"/>
    <g id="Groupe_2642" data-name="Groupe 2642" transform="translate(1.052 108.985)">
      <path id="Tracé_3050" data-name="Tracé 3050" d="M183.3,225.145l.175-.994a2.532,2.532,0,0,1-.292.058c-.409,0-.468-.234-.409-.351l.351-2.046h.643l.175-1.111h-.585l.117-.7H182.3s-.7,3.858-.7,4.326a.878.878,0,0,0,.935.994A1.8,1.8,0,0,0,183.3,225.145Z" transform="translate(-169.381 -219.474)" fill="#fff"/>
      <path id="Tracé_3051" data-name="Tracé 3051" d="M210.4,231.337a1.86,1.86,0,0,0,2.046,2.046,3.035,3.035,0,0,0,1.228-.175l.234-1.111a3.5,3.5,0,0,1-1.228.292c-1.286,0-1.052-.935-1.052-.935h2.4a7.579,7.579,0,0,0,.175-1.052,1.584,1.584,0,0,0-1.7-1.7C211.277,228.589,210.4,229.875,210.4,231.337Zm2.046-1.7c.643,0,.526.76.526.818h-1.286C211.686,230.4,211.8,229.642,212.446,229.642Z" transform="translate(-196.077 -227.537)" fill="#fff"/>
      <path id="Tracé_3052" data-name="Tracé 3052" d="M299.215,218.471l.234-1.286a2.873,2.873,0,0,1-.994.292c-.818,0-1.169-.643-1.169-1.345,0-1.4.7-2.163,1.52-2.163a1.952,1.952,0,0,1,1.052.351l.175-1.228a4.111,4.111,0,0,0-1.345-.292c-1.345,0-2.689,1.169-2.689,3.391,0,1.462.7,2.455,2.1,2.455A5.248,5.248,0,0,0,299.215,218.471Z" transform="translate(-275.421 -212.8)" fill="#fff"/>
      <path id="Tracé_3053" data-name="Tracé 3053" d="M88.622,227.2a4.14,4.14,0,0,0-1.4.234l-.175.994a3.456,3.456,0,0,1,1.286-.234c.409,0,.76.058.76.409,0,.234-.058.292-.058.292H88.5c-.994,0-2.1.409-2.1,1.754,0,1.052.7,1.286,1.111,1.286a1.757,1.757,0,0,0,1.228-.526l-.058.468h1.052l.468-3.215A1.386,1.386,0,0,0,88.622,227.2Zm.234,2.631c0,.175-.117,1.111-.818,1.111a.456.456,0,0,1-.468-.468c0-.292.175-.7,1.052-.7A.922.922,0,0,0,88.855,229.831Z" transform="translate(-81.138 -226.148)" fill="#fff"/>
      <path id="Tracé_3054" data-name="Tracé 3054" d="M136.545,231.194a1.5,1.5,0,0,0,1.754-1.52c0-1.462-1.4-1.169-1.4-1.754,0-.292.234-.409.643-.409.175,0,.818.058.818.058l.175-1.052a4.441,4.441,0,0,0-1.111-.117c-.877,0-1.754.351-1.754,1.52,0,1.345,1.462,1.228,1.462,1.754,0,.351-.409.409-.7.409a3.823,3.823,0,0,1-1.052-.175l-.175,1.052C135.258,231.077,135.551,231.194,136.545,231.194Z" transform="translate(-126.372 -225.406)" fill="#fff"/>
      <path id="Tracé_3055" data-name="Tracé 3055" d="M430.532,214.4l-.234,1.578a1.621,1.621,0,0,0-1.111-.585c-1.052,0-1.988,1.286-1.988,2.806,0,.935.468,1.929,1.462,1.929a1.56,1.56,0,0,0,1.111-.468l-.058.409h1.169l.877-5.612Zm-.526,3.1c0,.643-.292,1.462-.935,1.462-.409,0-.643-.351-.643-.935,0-.935.409-1.52.935-1.52C429.772,216.5,430.006,216.8,430.006,217.5Z" transform="translate(-397.034 -214.283)" fill="#fff"/>
      <path id="Tracé_3056" data-name="Tracé 3056" d="M15.511,220.012l.7-4.209.117,4.209h.818l1.52-4.209-.643,4.209h1.228l.935-5.612H18.258l-1.169,3.449-.058-3.449h-1.7l-.935,5.612Z" transform="translate(-14.4 -214.283)" fill="#fff"/>
      <path id="Tracé_3057" data-name="Tracé 3057" d="M261.286,233.36c.351-1.929.409-3.508,1.228-3.215a4.587,4.587,0,0,1,.409-1.345h-.234c-.526,0-.935.7-.935.7l.117-.643H260.76l-.76,4.56h1.286Z" transform="translate(-242.052 -227.631)" fill="#fff"/>
      <path id="Tracé_3058" data-name="Tracé 3058" d="M348.622,227.2a4.14,4.14,0,0,0-1.4.234l-.175.994a3.456,3.456,0,0,1,1.286-.234c.409,0,.76.058.76.409,0,.234-.058.292-.058.292H348.5c-.994,0-2.1.409-2.1,1.754,0,1.052.7,1.286,1.111,1.286a1.756,1.756,0,0,0,1.228-.526l-.058.468h1.052l.468-3.215A1.365,1.365,0,0,0,348.622,227.2Zm.292,2.631c0,.175-.117,1.111-.819,1.111a.456.456,0,0,1-.468-.468c0-.292.175-.7,1.052-.7C348.855,229.831,348.855,229.831,348.914,229.831Z" transform="translate(-322.138 -226.148)" fill="#fff"/>
      <path id="Tracé_3059" data-name="Tracé 3059" d="M395.686,233.36c.351-1.929.409-3.508,1.228-3.215a4.588,4.588,0,0,1,.409-1.345h-.234c-.526,0-.935.7-.935.7l.117-.643H395.16l-.76,4.56h1.286Z" transform="translate(-366.631 -227.631)" fill="#fff"/>
    </g>
    <g id="Groupe_2643" data-name="Groupe 2643" transform="translate(1.052 108.985)">
      <path id="Tracé_3060" data-name="Tracé 3060" d="M180,224.326a.878.878,0,0,0,.935.994,2.225,2.225,0,0,0,.877-.175l.175-.994a2.531,2.531,0,0,1-.292.058c-.409,0-.468-.234-.409-.351l.351-2.046h.643l.175-1.111h-.585l.117-.7" transform="translate(-167.898 -219.474)" fill="#dce5e5"/>
      <path id="Tracé_3061" data-name="Tracé 3061" d="M218.4,231.337c0,1.637.526,2.046,1.462,2.046a3.035,3.035,0,0,0,1.228-.175l.234-1.111a3.5,3.5,0,0,1-1.228.292c-1.286,0-1.052-.935-1.052-.935h2.4a7.579,7.579,0,0,0,.175-1.052,1.584,1.584,0,0,0-1.7-1.7C218.692,228.589,218.4,229.875,218.4,231.337Zm1.462-1.7c.643,0,.76.76.76.818H219.1C219.1,230.4,219.218,229.642,219.862,229.642Z" transform="translate(-203.492 -227.537)" fill="#dce5e5"/>
      <path id="Tracé_3062" data-name="Tracé 3062" d="M306.631,218.471l.234-1.286a2.874,2.874,0,0,1-.994.292c-.818,0-1.169-.643-1.169-1.345,0-1.4.7-2.163,1.52-2.163a1.952,1.952,0,0,1,1.052.351l.175-1.228a4.111,4.111,0,0,0-1.345-.292c-1.345,0-2.1,1.169-2.1,3.391,0,1.462.117,2.455,1.52,2.455A5.247,5.247,0,0,0,306.631,218.471Z" transform="translate(-282.837 -212.8)" fill="#dce5e5"/>
      <path id="Tracé_3063" data-name="Tracé 3063" d="M87.043,229.969a3.456,3.456,0,0,1,1.286-.234c.409,0,.76.058.76.409,0,.234-.058.292-.058.292H88.5c-.994,0-2.1.409-2.1,1.754,0,1.052.7,1.286,1.111,1.286a1.757,1.757,0,0,0,1.228-.526l-.058.468h1.052L90.2,230.2c0-1.345-1.169-1.4-1.637-1.4m.877,2.514a1.914,1.914,0,0,1-1.4,1.111.456.456,0,0,1-.468-.468c0-.292.175-.7,1.052-.7A4.778,4.778,0,0,0,89.44,231.314Z" transform="translate(-81.138 -227.631)" fill="#dce5e5"/>
      <path id="Tracé_3064" data-name="Tracé 3064" d="M136,231.077a4.948,4.948,0,0,0,1.345.117,1.5,1.5,0,0,0,1.754-1.52c0-1.462-1.4-1.169-1.4-1.754,0-.292.234-.409.643-.409.175,0,.818.058.818.058l.175-1.052a4.441,4.441,0,0,0-1.111-.117c-.877,0-1.169.351-1.169,1.52,0,1.345.877,1.228.877,1.754,0,.351-.409.409-.7.409" transform="translate(-127.114 -225.406)" fill="#dce5e5"/>
      <path id="Tracé_3065" data-name="Tracé 3065" d="M437.66,216.72a1.621,1.621,0,0,0-1.111-.585c-1.052,0-1.4,1.286-1.4,2.806,0,.935-.117,1.929.877,1.929a1.56,1.56,0,0,0,1.111-.468l-.058.409h1.169l.877-5.612m-1.52,3.04c0,.643-.526,1.462-1.169,1.462-.409,0-.643-.351-.643-.935,0-.935.409-1.52.935-1.52A.893.893,0,0,1,437.6,218.24Z" transform="translate(-404.395 -215.025)" fill="#dce5e5"/>
      <path id="Tracé_3066" data-name="Tracé 3066" d="M15.511,220.012l.7-4.209.117,4.209h.818l1.52-4.209-.643,4.209h1.228l.935-5.612H18.726l-1.637,3.449-.058-3.449h-.643L14.4,220.012Z" transform="translate(-14.4 -214.283)" fill="#dce5e5"/>
      <path id="Tracé_3067" data-name="Tracé 3067" d="M260.8,233.36h1.228c.351-1.929.409-3.508,1.228-3.215a4.589,4.589,0,0,1,.409-1.345h-.234c-.526,0-.935.7-.935.7l.117-.643" transform="translate(-242.794 -227.631)" fill="#dce5e5"/>
      <path id="Tracé_3068" data-name="Tracé 3068" d="M347.043,229.969a3.456,3.456,0,0,1,1.286-.234c.409,0,.76.058.76.409,0,.234-.058.292-.058.292H348.5c-.994,0-2.1.409-2.1,1.754,0,1.052.7,1.286,1.111,1.286a1.756,1.756,0,0,0,1.228-.526l-.058.468h1.052l.468-3.215c0-1.345-1.169-1.4-1.637-1.4m.877,2.514a1.914,1.914,0,0,1-1.4,1.111.456.456,0,0,1-.468-.468c0-.292.175-.7,1.052-.7A5.144,5.144,0,0,0,349.44,231.314Z" transform="translate(-322.138 -227.631)" fill="#dce5e5"/>
      <path id="Tracé_3069" data-name="Tracé 3069" d="M395.2,233.36h1.228c.351-1.929.409-3.508,1.228-3.215a4.588,4.588,0,0,1,.409-1.345h-.234c-.526,0-.935.7-.935.7l.117-.643" transform="translate(-367.372 -227.631)" fill="#dce5e5"/>
    </g>
  </g>
</svg>
