<svg id="Composant_38_1" data-name="Composant 38 – 1" xmlns="http://www.w3.org/2000/svg" width="27" height="27" viewBox="0 0 27 27">
  <g id="Groupe_2797" data-name="Groupe 2797" transform="translate(6.698 6.398)">
    <path id="Tracé_370" data-name="Tracé 370" d="M35.5,279.263a.643.643,0,0,0-.644.644,1.933,1.933,0,0,1-1.931,1.931H27.773v-1.931a.644.644,0,0,0-1.046-.5l-3.218,2.574a.644.644,0,0,0,0,1.005l3.218,2.574a.644.644,0,0,0,1.046-.5v-1.931h5.149a3.222,3.222,0,0,0,3.218-3.218A.643.643,0,0,0,35.5,279.263Z" transform="translate(-23.268 -271.54)" fill="#fff"/>
    <path id="Tracé_371" data-name="Tracé 371" d="M23.912,6.436a.643.643,0,0,0,.644-.644,1.933,1.933,0,0,1,1.931-1.931h5.149V5.792a.644.644,0,0,0,1.046.5L35.9,3.72a.644.644,0,0,0,0-1.005L32.681.14a.644.644,0,0,0-1.046.5V2.574H26.486a3.222,3.222,0,0,0-3.218,3.218A.643.643,0,0,0,23.912,6.436Z" transform="translate(-23.268 0)" fill="#fff"/>
  </g>
</svg>
