<svg id="list" xmlns="http://www.w3.org/2000/svg" width="17.7" height="19.855" viewBox="0 0 17.7 19.855">
  <path id="Tracé_88" data-name="Tracé 88" d="M64.749,76.3H76.915a.818.818,0,0,0,0-1.631H64.749a.818.818,0,0,0,0,1.631Z" transform="translate(-61.982 -71.768)" fill="#fff"/>
  <path id="Tracé_89" data-name="Tracé 89" d="M96.749,1.631h9.885a.784.784,0,0,0,.749-.815A.784.784,0,0,0,106.634,0H96.749A.784.784,0,0,0,96,.815.784.784,0,0,0,96.749,1.631Z" transform="translate(-92.841 0)" fill="#fff"/>
  <path id="Tracé_90" data-name="Tracé 90" d="M22.479,149.333H9.984A2.762,2.762,0,0,0,7.4,152.542l1.027,8.387a2.7,2.7,0,0,0,2.579,2.46H21.453a2.7,2.7,0,0,0,2.579-2.46l1.027-8.387A2.762,2.762,0,0,0,22.479,149.333Zm-2.917,5.736a.721.721,0,0,1-1,.365l-1.2-.653v3.651a2.38,2.38,0,0,1-2.269,2.472,2.481,2.481,0,0,1,0-4.944h.772v-2.5a.754.754,0,0,1,1.083-.729l2.281,1.243A.851.851,0,0,1,19.563,155.069Z" transform="translate(-7.382 -143.534)" fill="#fff"/>
</svg>
